<?xml version="1.0" encoding="utf-8"?>
<!-- Generator: Adobe Illustrator 15.0.0, SVG Export Plug-In . SVG Version: 6.00 Build 0)  -->
<!DOCTYPE svg PUBLIC "-//W3C//DTD SVG 1.1//EN" "http://www.w3.org/Graphics/SVG/1.1/DTD/svg11.dtd">
<svg version="1.1" id="Layer_1" xmlns="http://www.w3.org/2000/svg" xmlns:xlink="http://www.w3.org/1999/xlink"
	  viewBox="0 0 499.239 291.721"
	  preserveAspectRatio="none">
<g>
	<path fill="#487FB1" d="M103.538,218.994c8.686-0.338,14.738-0.695,16.152-1.562C120.991,216.639,114.134,217.271,103.538,218.994z
		"/>
	<path fill="#487FB1" d="M478.733,64.907c-8.84,7.268-14.418,17.468-21.189,26.298c-6.928,9.035-14.029,17.956-20.389,27.283
		c-9.018,13.221-17.236,26.373-27.986,38.132c-5.994,6.556-11.807,12.938-17.99,19.724c-3.041,3.335-5.725,7.187-8.799,9.86
		c-4.193,3.654-9.953,6.575-14.791,9.862c-9.408,6.394-18.451,14.117-29.984,18.736c-23.346,9.35-47.334,19.427-71.164,28.601
		c-5.887,2.266-90.338,65.027-233.036,15.528c-38.227-17.205,35.701-34.339,70.136-39.938c-25.902,1.008-75.222,1.841-94.792,15.438
		c-15.83,11-13.143,38.5,33.004,47.103c9.568,1.782,22.479,3.569,33.984,5.26c11.081,1.625,22.597,3.94,33.185,4.602
		c11.75,0.732,24.52,0,36.779,0c12.361,0,23.607-0.668,34.385-1.973c10.635-1.287,21.295-2.742,31.982-3.943
		c10.602-1.192,21.895-1.522,31.982-3.614c0.24-0.054,0.572,0.071,0.801,0c24.396-7.978,51.561-17.282,76.762-25.969
		c8.82-3.043,18.096-5.232,25.586-8.55c5.486-2.428,10.869-6.715,16.395-10.19c10.781-6.783,21.686-13.585,32.783-20.38
		c5.813-3.56,12.063-6.703,16.393-10.188c4.441-3.58,7.848-8.324,11.994-12.492c7.85-7.893,17.107-15.622,23.588-24.653
		c16.232-22.633,34.891-46.639,50.889-68.961V46.926C492.315,52.985,485.79,59.104,478.733,64.907z"/>
	<path fill="#487FB1" d="M481.132,5.408c-7.256,7.091-14.205,14.857-21.588,22.353c-2.318,2.354-5.369,4.745-7.197,7.232
		c-3.764,5.123-6.373,11.736-9.594,17.751c-18.689,34.88-37.064,70.991-57.574,104.534c-3.506,5.734-6.074,12.144-9.994,17.093
		c-1.863,2.354-4.893,4.704-7.195,6.903c-6.855,6.547-14.342,13.079-21.191,20.051c6.164-3.032,11.035-6.975,16.395-10.52
		c5.242-3.468,11.301-6.453,15.99-10.518c4.541-3.935,8.131-9.149,12.396-13.807c4.131-4.513,8.645-9.01,12.793-13.479
		c8.572-9.236,15.283-19.981,21.988-29.913c10.17-15.065,21.16-30.715,31.584-46.021c3.523-5.173,6.053-11.172,9.996-15.449
		c2.258-2.452,6.584-4.656,9.994-7.232c6.635-5.015,13.021-9.483,19.99-14.464c0.443-0.316,0.881-0.65,1.313-0.993V0
		C493.134,1.713,487.073,3.487,481.132,5.408z"/>
	<path fill="#487FB1" d="M444.351,184.562c-4.139,4.132-8.639,8.289-12.793,12.491c-4.232,4.275-7.869,9.234-12.395,12.819
		c-4.451,3.527-10.334,6.727-15.594,10.191c-10.328,6.804-20.137,13.627-30.783,20.708c-4.828,3.213-10.125,7.868-15.594,10.188
		c-7.939,3.373-17.439,5.229-25.984,7.891c-25.699,8.003-50.092,15.816-76.764,24.327c30.736-5.496,60.307-11.447,91.154-17.096
		c10.254-1.877,21.008-2.793,30.385-5.588c0.217-0.064,0.602,0.094,0.799,0c18.723-8.709,39.533-18.361,59.172-27.284
		c6.77-3.076,14.557-5.574,19.59-8.875c5.424-3.552,9.711-9.439,14.793-14.135c9.547-8.818,19.439-17.995,28.898-27.213v-63.749
		C481.022,141.021,464.884,164.053,444.351,184.562z"/>
	<path fill="#487FB1" d="M498.724,233.87c-4.945,3.518-9.422,7.881-13.992,9.862c-5.254,2.272-11.99,3.768-17.992,5.588
		c-16.561,5.021-33.307,9.231-49.975,14.793c-0.967,0.322-2.959,0.465-3.199,1.643c28.979-5.086,59.117-5.541,84.359-11.176
		c0.398-0.089,0.842-0.229,1.313-0.403v-20.672C499.065,233.626,498.896,233.747,498.724,233.87z"/>
	<path fill="#487FB1" d="M462.741,229.597c-26.324,11.555-52.904,22.902-78.76,34.844c29.854-7.83,56.623-14.953,85.955-23.341
		c3.881-1.108,8.695-1.901,11.994-3.286c4.297-1.804,9.869-7.015,14.395-10.191c0.977-0.686,1.941-1.371,2.912-2.056v-32.954
		C486.815,205.102,474.825,217.181,462.741,229.597z"/>
</g>
</svg>
