<?xml version="1.0" encoding="utf-8"?>
<!-- Generator: Adobe Illustrator 15.0.0, SVG Export Plug-In . SVG Version: 6.00 Build 0)  -->
<!DOCTYPE svg PUBLIC "-//W3C//DTD SVG 1.1//EN" "http://www.w3.org/Graphics/SVG/1.1/DTD/svg11.dtd">
<svg version="1.1" id="Layer_1" xmlns="http://www.w3.org/2000/svg" xmlns:xlink="http://www.w3.org/1999/xlink" x="0px" y="0px"
	 width="434px" height="204.638px" viewBox="0 0 434 204.638" enable-background="new 0 0 434 204.638" xml:space="preserve">
<g>
	<path fill-rule="evenodd" clip-rule="evenodd" fill="#333333" d="M193.491,62.973c-21.422,3.004-39.154,15.644-50.74,29.268
		c8.85-0.868,17.699-1.735,26.549-2.604c-1.283-1.843-2.682-3.545-2.393-7.305C172.722,73.375,183.007,68.092,193.491,62.973z"/>
	<path fill-rule="evenodd" clip-rule="evenodd" fill="#333333" d="M279.142,82.216c1.705-9.011,10.596-13.613,22.256-12.234
		C293.095,59.964,263.769,71.777,279.142,82.216z"/>
	<path fill-rule="evenodd" clip-rule="evenodd" fill="#333333" d="M128.077,130.536c25.711-23.635,63.086-37.69,109.58-44.252
		C192.448,85.535,144.886,100.671,128.077,130.536z"/>
	<path fill-rule="evenodd" clip-rule="evenodd" fill="#333333" d="M118.103,97.17c-2.971-1.644-9.141,0.604-13.355,0.472
		C106.415,100.954,115.364,97.969,118.103,97.17z"/>
	<path fill-rule="evenodd" clip-rule="evenodd" fill="#333333" d="M104.161,100.212c-14.047,0.143-27.711,5.086-41.742,9.957
		c-18.074,6.277-40.482,11.612-38.799,31.447c-3.277,2.393-3.209,7.537-5.662,10.606c1.107,2.679-0.947,9.208,2.555,8.966
		c-1.563-9.422,1.896-14.719,6.508-19.068c-0.191-1.936-0.381-3.871-0.57-5.807c1.559-11.763,13.939-15.293,27.33-20.271
		C69.146,110.331,87.185,105.593,104.161,100.212z"/>
	<path fill-rule="evenodd" clip-rule="evenodd" fill="#333333" d="M161.573,96.259c-48.176,0.859-92.025,11.884-110.9,39.354
		c19.828-8.845,40.867-21.235,65.836-29.073C130.497,102.15,145.655,100.682,161.573,96.259z"/>
	<path fill-rule="evenodd" clip-rule="evenodd" fill="#333333" d="M191.132,124.353c1.176,5.38,5.807,6.553,9.273,9.143
		c3.143-10.896,8.645-19.854,18.465-25.266c19.82-4.01,27.414,6.869,34.473,18.398c41.354-18.09,89.717-37.937,148.885-36.378
		c-18.109-8.142-39.418-4.817-60.387-0.78c-18.297,3.523-36.143,6.458-54.271,10.349c-12.469,2.675-28.596,9.706-36.766,9.47
		c-4.893-0.145-9.512-3.953-13.844-4.508C217.839,102.337,198.063,110.346,191.132,124.353z"/>
	<path fill-rule="evenodd" clip-rule="evenodd" fill="#333333" d="M42.149,125.56c-5.299,1.75-7.857,5.752-8.98,10.932
		c2.439,0.414,3.43-6.553,4.814-2.146C39.558,131.567,42.138,129.618,42.149,125.56z"/>
	<path fill-rule="evenodd" clip-rule="evenodd" fill="#333333" d="M378.606,122.722c4.479-9.289,5.223-21.648,22.271-20.613
		C389.702,84.191,375.04,105.981,378.606,122.722z"/>
	<path fill-rule="evenodd" clip-rule="evenodd" fill="#333333" d="M208.62,131.852c3.266,1.755,12.318,0.754,17.83,2.439
		c5.959,2.961,10.498,7.653,15.408,11.892c3.682,10.344,5.771,24.109,3.416,34.85C270.735,157.453,238.995,107.367,208.62,131.852z"
		/>
	<path fill-rule="evenodd" clip-rule="evenodd" fill="#333333" d="M390.481,115.693c17.133,3.552,22.842,33.561,17.734,52.71
		c6.18-6.959,6.545-24.589,3.057-37.158C408.47,121.142,399.999,108.624,390.481,115.693z"/>
	<path fill-rule="evenodd" clip-rule="evenodd" fill="#333333" d="M157.181,136.896c-0.518-1.107-7.676-1.279-6.555,1.481
		C153.513,138.46,155.243,137.593,157.181,136.896z"/>
	<path fill-rule="evenodd" clip-rule="evenodd" fill="#333333" d="M149.876,139.287c-29.107,4.063-58.734,14.311-94.842,15.164
		C86.354,160.196,123.53,147.467,149.876,139.287z"/>
	<path fill-rule="evenodd" clip-rule="evenodd" fill="#333333" d="M391.702,128.138c-3.996,10.148-3.719,32.426,6.232,37.924
		c8.422-8.056,4.475-29.43-2.084-38.33C394.468,127.867,393.085,128.003,391.702,128.138z"/>
	<path fill-rule="evenodd" clip-rule="evenodd" fill="#333333" d="M218.464,146.802c-21.238-0.914-14.25,33.207,1.432,31.691
		c6.938-0.67,15.195-10.398,11.16-22.874C229.132,149.677,224.397,147.058,218.464,146.802z"/>
	<path fill-rule="evenodd" clip-rule="evenodd" fill="#333333" d="M147.437,157.117c-17.182,2.417-20.525,16.198-32.064,23.249
		c6.404-0.057,15.135-2.947,19.246-0.211C137.765,171.55,139.931,162.142,147.437,157.117z"/>
	<path fill-rule="evenodd" clip-rule="evenodd" fill="#333333" d="M27.964,168.833c10.885,2.848,10.344,19.605,23.688,19.457
		C42.528,183.3,42.411,167.343,27.964,168.833z"/>
	<path fill-rule="evenodd" clip-rule="evenodd" fill="#333333" d="M350.772,146.394c-28.635,0.635-57.105,8.019-84.221,12.447
		c-1.736,5.691-4.738,10.348-5.01,17.244c30.195-9.271,68.596-11.805,105.711-15.393c-25.998-4.27-60.719,0.822-89.932,5.469
		C296.769,155.434,326.282,152.978,350.772,146.394z"/>
	<path fill-rule="evenodd" clip-rule="evenodd" fill="#333333" d="M200.829,171.985c-3.914-0.418-3.646,2.6-5.48,3.891
		c-9.176,0.438-18.434-3.283-27.625,0.193c9.746,2.066,20.17,3.309,30.6,4.539C199.38,177.917,200.337,175.142,200.829,171.985z"/>
	<path fill-rule="evenodd" clip-rule="evenodd" fill="#333333" d="M340.407,57.78c-6.652-5.673-19.9-9.37-30.502-12.087
		c-3.109-0.796-11.242-3.109-17.83-2.44c-21.326,2.165-24.012,20.356-33.496,34.278c14.393-14.027,14.465-33.79,43.859-31.105
		C315.89,47.654,327.853,53.81,340.407,57.78z"/>
	<path fill-rule="evenodd" clip-rule="evenodd" fill="#333333" d="M197.899,56.677c-13.801-0.581-29.881,9.985-41.094,16.595
		C168.829,69.414,181.769,59.704,197.899,56.677z"/>
	<path fill-rule="evenodd" clip-rule="evenodd" fill="#333333" d="M156.058,74.182c-2.693,0.332-4.367,1.5-4.652,3.807
		C152.616,76.44,155.976,76.659,156.058,74.182z"/>
	<path fill-rule="evenodd" clip-rule="evenodd" fill="#333333" d="M147.501,80.885c-8.066,1.263-13.449,11.327-22.922,13.976
		C136.55,96.806,138.733,84.112,147.501,80.885z"/>
	<path fill-rule="evenodd" clip-rule="evenodd" fill="#333333" d="M191.751,105.026c-2.236,5.028-6.59,8.318-9.648,12.673
		c6.799-2.813,14.273-11.667,21.85-16.383c-23.193,0.784-37.92,8.522-51.051,17.571
		C163.624,115.972,176.812,104.485,191.751,105.026z"/>
</g>
</svg>
