<?xml version="1.0" encoding="utf-8"?>
<!-- Generator: Adobe Illustrator 15.0.0, SVG Export Plug-In . SVG Version: 6.00 Build 0)  -->
<!DOCTYPE svg PUBLIC "-//W3C//DTD SVG 1.1//EN" "http://www.w3.org/Graphics/SVG/1.1/DTD/svg11.dtd">
<svg version="1.1" id="Layer_1" xmlns="http://www.w3.org/2000/svg" xmlns:xlink="http://www.w3.org/1999/xlink" x="0px" y="0px"
	 width="214.442px" height="148.711px" viewBox="0 0 214.442 148.711" enable-background="new 0 0 214.442 148.711"
	 xml:space="preserve">
<g>
	<path fill="#989898" d="M198.96,25.92C132.989,55.106,66.535,82.48,0,111.318v25.242c45.035-24.732,90.212-49.43,134.699-74.604
		C156.259,49.754,177.894,40.09,198.96,25.92z"/>
	<path fill="#989898" d="M185.199,53.897c-54.814,28.699-113.653,63.087-171.138,94.813h33.45
		C93.408,117.455,139.305,86.04,185.199,53.897z"/>
	<path fill="#989898" d="M0,68.508v26.706C71.482,65.678,142.966,35.959,214.442,5.627C142.934,25.715,71.548,47.07,0,68.508z"/>
	<path fill="#989898" d="M0,21.437v34.616C69.929,37.604,139.858,19.054,209.785,0C139.853,6.879,69.926,14.046,0,21.437z"/>
	<path fill="#989898" d="M171.519,99.051c-17.65,16.344-35.299,32.971-52.948,49.66h7.12
		C141.269,132.225,156.646,115.675,171.519,99.051z"/>
	<path fill="#989898" d="M191.175,70.771c-32.24,25.826-64.48,51.9-96.721,77.94h15.269C137.3,122.919,164.71,96.949,191.175,70.771
		z"/>
	<path fill="#989898" d="M185.25,64.394c-40.479,27.711-80.955,56.128-121.433,84.317h17.909
		C116.695,120.752,151.587,92.641,185.25,64.394z"/>
</g>
</svg>
