<?xml version="1.0" encoding="utf-8"?>
<!-- Generator: Adobe Illustrator 15.0.0, SVG Export Plug-In . SVG Version: 6.00 Build 0)  -->
<!DOCTYPE svg PUBLIC "-//W3C//DTD SVG 1.1//EN" "http://www.w3.org/Graphics/SVG/1.1/DTD/svg11.dtd">
<svg version="1.1" id="Layer_1" xmlns="http://www.w3.org/2000/svg" xmlns:xlink="http://www.w3.org/1999/xlink" x="0px" y="0px"
	 width="191.445px" height="98.684px" viewBox="0 0 191.445 98.684" enable-background="new 0 0 191.445 98.684"
	 xml:space="preserve">
<g>
	<path opacity="0.2" fill="#676767" enable-background="new    " d="M5.017,36.939C14.984,24.689,23.74,13.011,33.039,0h-6.955
		C16.527,16.982,14.66,20.206,5.017,36.939z"/>
	<path opacity="0.2" fill="#676767" enable-background="new    " d="M0,64.539C19.031,42.8,38.171,21.372,57.332,0H43.634
		C28.849,21.636,14.271,43.204,0,64.539z"/>
	<path opacity="0.2" fill="#676767" enable-background="new    " d="M14.552,64.345c21.686-16.13,40.959-35.798,60.77-54.375
		c3.549-3.328,7.105-6.65,10.67-9.969H72.015C52.937,21.666,33.816,43.214,14.552,64.345z"/>
	<path opacity="0.2" fill="#676767" enable-background="new    " d="M25.041,98.684C80.027,64.892,136.505,32.5,192.744,0h-35.066
		C112.707,32.674,68.16,65.597,25.041,98.684z"/>
	<path opacity="0.2" fill="#676767" enable-background="new    " d="M22.597,74.854C56.582,49.741,90.66,24.893,124.722,0h-22.578
		C75.212,25.003,48.609,50.048,22.597,74.854z"/>
</g>
</svg>
